<svg width="299" height="45" viewBox="0 0 299 45" fill="none" xmlns="http://www.w3.org/2000/svg">
<rect x="0.5" y="0.5" width="298" height="44" rx="11.5" fill="white" stroke="#CDCDCD"/>
<path d="M98.07 17.038H106.204V18.508H98.07V17.038ZM96.74 22.554H108.458V24.052H96.74V22.554ZM101.598 23.604H103.474V29.26H101.598V23.604ZM105.252 17.038H107.086V18.186C107.086 19.586 107.086 21.154 106.582 23.45L104.748 23.24C105.252 21.07 105.252 19.53 105.252 18.186V17.038ZM111.047 16.8H119.265V18.27H111.047V16.8ZM109.619 20.846H121.351V22.316H109.619V20.846ZM118.145 16.8H119.979V17.682C119.979 18.606 119.979 19.782 119.643 21.28L117.809 21.112C118.145 19.642 118.145 18.592 118.145 17.682V16.8ZM110.921 23.198H119.937V26.852H112.797V28.168H110.935V25.48H118.089V24.64H110.921V23.198ZM110.935 27.72H120.273V29.162H110.935V27.72ZM122.498 26.306H134.23V27.818H122.498V26.306ZM127.412 23.856H129.274V26.922H127.412V23.856ZM123.814 17.122H132.914V21.434H125.69V23.618H123.842V19.978H131.066V18.592H123.814V17.122ZM123.842 22.876H133.208V24.374H123.842V22.876ZM139.013 26.306H150.745V27.818H139.013V26.306ZM143.927 23.856H145.789V26.922H143.927V23.856ZM140.329 17.122H149.429V21.434H142.205V23.618H140.357V19.978H147.581V18.592H140.329V17.122ZM140.357 22.876H149.723V24.374H140.357V22.876ZM153.082 17.472H161.3V18.942H153.082V17.472ZM151.892 26.04H163.61V27.552H151.892V26.04ZM160.32 17.472H162.168V19.012C162.168 20.832 162.168 22.596 161.706 25.256L159.844 25.102C160.32 22.61 160.32 20.762 160.32 19.012V17.472ZM173.661 16.296H175.537V25.606H173.661V16.296ZM166.899 27.538H175.859V29.022H166.899V27.538ZM166.899 24.668H168.761V28.14H166.899V24.668ZM168.481 17.108C170.469 17.108 171.995 18.48 171.995 20.398C171.995 22.302 170.469 23.688 168.481 23.688C166.493 23.688 164.953 22.302 164.953 20.398C164.953 18.48 166.493 17.108 168.481 17.108ZM168.481 18.718C167.515 18.718 166.773 19.334 166.773 20.398C166.773 21.448 167.515 22.064 168.481 22.064C169.433 22.064 170.175 21.448 170.175 20.398C170.175 19.334 169.433 18.718 168.481 18.718ZM185.952 16.282H187.8V29.246H185.952V16.282ZM187.38 21.336H189.676V22.89H187.38V21.336ZM177.58 18.2H185.126V19.684H177.58V18.2ZM181.374 20.412C183.264 20.412 184.664 21.7 184.664 23.506C184.664 25.312 183.264 26.6 181.374 26.6C179.484 26.6 178.084 25.312 178.084 23.506C178.084 21.7 179.484 20.412 181.374 20.412ZM181.374 21.924C180.492 21.924 179.862 22.512 179.862 23.506C179.862 24.5 180.492 25.088 181.374 25.088C182.256 25.088 182.886 24.5 182.886 23.506C182.886 22.512 182.256 21.924 181.374 21.924ZM180.436 16.492H182.298V18.76H180.436V16.492ZM199.447 16.282H201.323V29.246H199.447V16.282ZM195.625 17.626H197.473C197.473 21.588 196.129 24.836 191.523 27.062L190.557 25.578C194.281 23.786 195.625 21.434 195.625 17.962V17.626ZM191.243 17.626H196.507V19.096H191.243V17.626Z" fill="#222222"/>
<path d="M42.56 22.25C42.56 21.47 42.49 20.72 42.36 20H32V24.26H37.92C37.66 25.63 36.88 26.79 35.71 27.57V30.34H39.28C41.36 28.42 42.56 25.6 42.56 22.25Z" fill="#4285F4"/>
<path d="M31.9999 33.0001C34.9699 33.0001 37.4599 32.0201 39.2799 30.3401L35.7099 27.5701C34.7299 28.2301 33.4799 28.6301 31.9999 28.6301C29.1399 28.6301 26.7099 26.7001 25.8399 24.1001H22.1799V26.9401C23.9899 30.5301 27.6999 33.0001 31.9999 33.0001Z" fill="#34A853"/>
<path d="M25.84 24.0901C25.62 23.4301 25.49 22.7301 25.49 22.0001C25.49 21.2701 25.62 20.5701 25.84 19.9101V17.0701H22.18C21.43 18.5501 21 20.2201 21 22.0001C21 23.7801 21.43 25.4501 22.18 26.9301L25.03 24.7101L25.84 24.0901Z" fill="#FBBC05"/>
<path d="M31.9999 15.38C33.6199 15.38 35.0599 15.94 36.2099 17.02L39.3599 13.87C37.4499 12.09 34.9699 11 31.9999 11C27.6999 11 23.9899 13.47 22.1799 17.07L25.8399 19.91C26.7099 17.31 29.1399 15.38 31.9999 15.38Z" fill="#EA4335"/>
</svg>
