<svg width="299" height="45" viewBox="0 0 299 45" fill="none" xmlns="http://www.w3.org/2000/svg">
<rect width="299" height="45" rx="12" fill="#988BFC"/>
<path d="M99.1766 16.268H101.053V29.274H99.1766V16.268ZM94.0666 17.178C96.0266 17.178 97.4686 18.97 97.4686 21.798C97.4686 24.654 96.0266 26.446 94.0666 26.446C92.1066 26.446 90.6646 24.654 90.6646 21.798C90.6646 18.97 92.1066 17.178 94.0666 17.178ZM94.0666 18.872C93.1006 18.872 92.4426 19.894 92.4426 21.798C92.4426 23.73 93.1006 24.766 94.0666 24.766C95.0326 24.766 95.6766 23.73 95.6766 21.798C95.6766 19.894 95.0326 18.872 94.0666 18.872ZM103.529 17.612H108.653V26.012H103.529V17.612ZM106.917 19.068H105.265V24.556H106.917V19.068ZM112.531 16.282H114.309V29.246H112.531V16.282ZM107.715 20.986H110.627V22.484H107.715V20.986ZM109.885 16.478H111.635V28.658H109.885V16.478ZM119.698 16.66C121.672 16.66 123.156 17.892 123.156 19.628C123.156 21.35 121.672 22.582 119.698 22.582C117.724 22.582 116.24 21.35 116.24 19.628C116.24 17.892 117.724 16.66 119.698 16.66ZM119.698 18.172C118.746 18.172 118.032 18.704 118.032 19.628C118.032 20.552 118.746 21.084 119.698 21.084C120.65 21.084 121.35 20.552 121.35 19.628C121.35 18.704 120.65 18.172 119.698 18.172ZM124.948 16.282H126.824V22.764H124.948V16.282ZM118.172 23.296H126.824V26.852H120.02V28.42H118.2V25.508H124.976V24.738H118.172V23.296ZM118.2 27.664H127.146V29.106H118.2V27.664ZM128.937 26.306H140.669V27.818H128.937V26.306ZM133.851 23.856H135.713V26.922H133.851V23.856ZM130.253 17.122H139.353V21.434H132.129V23.618H130.281V19.978H137.505V18.592H130.253V17.122ZM130.281 22.876H139.647V24.374H130.281V22.876ZM145.453 26.306H157.185V27.818H145.453V26.306ZM150.367 23.856H152.229V26.922H150.367V23.856ZM146.769 17.122H155.869V21.434H148.645V23.618H146.797V19.978H154.021V18.592H146.769V17.122ZM146.797 22.876H156.163V24.374H146.797V22.876ZM159.522 17.472H167.74V18.942H159.522V17.472ZM158.332 26.04H170.05V27.552H158.332V26.04ZM166.76 17.472H168.608V19.012C168.608 20.832 168.608 22.596 168.146 25.256L166.284 25.102C166.76 22.61 166.76 20.762 166.76 19.012V17.472ZM180.101 16.296H181.977V25.606H180.101V16.296ZM173.339 27.538H182.299V29.022H173.339V27.538ZM173.339 24.668H175.201V28.14H173.339V24.668ZM174.921 17.108C176.909 17.108 178.435 18.48 178.435 20.398C178.435 22.302 176.909 23.688 174.921 23.688C172.933 23.688 171.393 22.302 171.393 20.398C171.393 18.48 172.933 17.108 174.921 17.108ZM174.921 18.718C173.955 18.718 173.213 19.334 173.213 20.398C173.213 21.448 173.955 22.064 174.921 22.064C175.873 22.064 176.615 21.448 176.615 20.398C176.615 19.334 175.873 18.718 174.921 18.718ZM192.392 16.282H194.24V29.246H192.392V16.282ZM193.82 21.336H196.116V22.89H193.82V21.336ZM184.02 18.2H191.566V19.684H184.02V18.2ZM187.814 20.412C189.704 20.412 191.104 21.7 191.104 23.506C191.104 25.312 189.704 26.6 187.814 26.6C185.924 26.6 184.524 25.312 184.524 23.506C184.524 21.7 185.924 20.412 187.814 20.412ZM187.814 21.924C186.932 21.924 186.302 22.512 186.302 23.506C186.302 24.5 186.932 25.088 187.814 25.088C188.696 25.088 189.326 24.5 189.326 23.506C189.326 22.512 188.696 21.924 187.814 21.924ZM186.876 16.492H188.738V18.76H186.876V16.492ZM205.887 16.282H207.763V29.246H205.887V16.282ZM202.065 17.626H203.913C203.913 21.588 202.569 24.836 197.963 27.062L196.997 25.578C200.721 23.786 202.065 21.434 202.065 17.962V17.626ZM197.683 17.626H202.947V19.096H197.683V17.626Z" fill="white"/>
<path d="M32.5 11C26.152 11 21 16.152 21 22.5C21 28.848 26.152 34 32.5 34H38.25V31.7H32.5C27.509 31.7 23.3 27.491 23.3 22.5C23.3 17.509 27.509 13.3 32.5 13.3C37.491 13.3 41.7 17.509 41.7 22.5V24.1445C41.7 25.053 40.8835 25.95 39.975 25.95C39.0665 25.95 38.25 25.053 38.25 24.1445V22.5C38.25 19.326 35.674 16.75 32.5 16.75C29.326 16.75 26.75 19.326 26.75 22.5C26.75 25.674 29.326 28.25 32.5 28.25C34.087 28.25 35.536 27.606 36.571 26.5595C37.3185 27.583 38.6065 28.25 39.975 28.25C42.2405 28.25 44 26.41 44 24.1445V22.5C44 16.152 38.848 11 32.5 11ZM32.5 25.95C30.591 25.95 29.05 24.409 29.05 22.5C29.05 20.591 30.591 19.05 32.5 19.05C34.409 19.05 35.95 20.591 35.95 22.5C35.95 24.409 34.409 25.95 32.5 25.95Z" fill="white"/>
</svg>
